<svg xmlns="http://www.w3.org/2000/svg" viewBox="0 0 160 47"><path d="M10.14 23.91V9.57c0-.74.03-1.45.17-2.21L5.56 8.6l-.53-3.01 5.11-2.04h4.49v20.37h-4.49zm35.37-.21c-2.78.3-6.29.3-9.45.3-2.72 0-4.45-1.6-4.49-4.11V7.55c.03-2.51 1.77-4.11 4.49-4.11 3.16 0 6.67 0 9.45.3l-.21 3.33h-7.82c-.97 0-1.39.44-1.39 1.5v3.1h8.12v3.25h-8.12v3.92c0 1.09.42 1.54 1.39 1.54h7.82l.21 3.31zm9.86-4.54c0 1.01.56 1.48 1.65 1.48h1.18l.5 3.04c-.74.38-2.54.59-3.48.59-2.57 0-4.19-1.44-4.19-4.01V3.24h4.34v15.91zm12.1-1.07c.27 2.19 1.24 2.68 3.46 2.68 1.33 0 3.46-.12 5.44-.33l.42 2.72c-1.71.82-4.28 1.09-6.35 1.09-5.52 0-7.59-2.24-7.59-7.62 0-5.76 2.13-7.7 7.41-7.7 4.96 0 6.88 1.75 6.9 5.08 0 2.66-1.27 4.07-4.43 4.07h-5.25zm4.05-2.63c1.18 0 1.35-.68 1.35-1.5 0-1.35-.59-1.83-2.48-1.83-2.19 0-2.89.59-3.01 3.33h4.14zm23.58 7.83c-1.56.68-3.66.97-5.64.97-5.34 0-7.29-2.04-7.29-7.64s1.98-7.68 7.35-7.68c1.5 0 3.78.21 5.37.91l-.47 2.72c-1.6-.03-3.07-.06-4.16-.06-2.63 0-3.52.89-3.52 4.1s.89 4.11 3.52 4.11c.91 0 2.78-.03 4.45-.27l.38 2.83zm11.47-4.13c0 1.09.42 1.48 1.6 1.48h1.86l.47 3.04c-1.09.38-3.07.59-4.11.59-2.63 0-4.16-1.54-4.16-4.19v-7.79h-2.57V9.51l2.57-.15V5.29h4.34v4.07h4.05v2.93h-4.05v6.88zm19.18-6.17h-1.18c-1.24 0-2.51.36-4.45 1.01v9.92h-4.37V9.37h3.4l.38 2.13c1.95-1.65 4.01-2.54 5.9-2.54h.76l-.44 4.05zm8.61-10.06c.86 0 1.27.44 1.27 1.27v1.6c0 .86-.42 1.27-1.27 1.27h-1.95c-.86 0-1.27-.42-1.27-1.27V4.2c0-.82.42-1.27 1.27-1.27h1.95zm-3.13 20.99V9.37h4.34v14.55h-4.34zm22.92-.62c-1.56.68-3.66.97-5.64.97-5.34 0-7.29-2.04-7.29-7.64s1.98-7.68 7.35-7.68c1.5 0 3.78.21 5.37.91l-.47 2.72c-1.6-.03-3.07-.06-4.16-.06-2.63 0-3.52.89-3.52 4.1s.89 4.11 3.52 4.11c.91 0 2.78-.03 4.45-.27l.38 2.83zM15.67 37.31c.04.63.06 1.19.06 1.77v3.63h-.83V28.12h.85v6.82c0 .64-.02 1.13-.09 1.71h1.65l3.79-3.98h1.02l-3.6 3.84c-.15.15-.4.37-.54.48v.04c.15.12.4.4.54.61l3.94 5.09h-1l-4.15-5.4h-1.65v-.02zm21.47.37c0 3.87-1.19 5.27-4.48 5.27s-4.48-1.4-4.48-5.27 1.19-5.27 4.48-5.27 4.48 1.42 4.48 5.27zm-8.08 0c0 3.44.94 4.54 3.6 4.54s3.63-1.1 3.63-4.54-.96-4.52-3.63-4.52-3.6 1.09-3.6 4.52zm16.68 2.82c0 1.09.54 1.58 1.61 1.58h1.75l.1.61c-.58.1-1.52.16-1.92.16-1.58 0-2.38-.82-2.38-2.28v-7.21h-1.81v-.61l1.81-.09v-3.13h.83v3.11h3.59v.71h-3.59v7.13zm10.14-7.65c1.35-.18 2.86-.43 4.79-.43s2.96.79 2.96 2.92v7.38H63l-.15-1.85c-.85.83-2.77 2-4.67 2-1.71 0-2.73-.94-2.73-2.6v-1.25c0-1.52.92-2.4 2.5-2.4h4.84v-1.27c0-1.27-.5-2.17-2.23-2.17-1.4 0-3.11.15-4.6.31l-.09-.63zm.43 7.34c0 1.25.64 1.88 1.96 1.9 1.42.04 3.33-.82 4.52-1.92v-2.9l-4.75.06c-1.16.02-1.73.63-1.73 1.73v1.12zm15.72-7.72c0 .76-.02 1.42-.1 1.96 1.67-1.25 3.23-2.02 4.78-2.02 1.79 0 2.71.94 2.71 2.75v7.55h-.83v-7.38c0-1.52-.64-2.17-2.07-2.17s-2.67.64-4.5 1.92v7.63h-.83V28.12h.85v4.36zm15.56-3.99c.21 0 .31.12.31.33v1.25c0 .23-.1.33-.31.33h-.37c-.23 0-.33-.1-.33-.33v-1.25c0-.21.1-.33.33-.33h.37zm-.61 14.23V32.66h.82v10.05h-.82zm18.59-10.24c0 .76-.02 1.42-.1 1.96 1.67-1.25 3.23-2.02 4.78-2.02 1.79 0 2.71.94 2.71 2.75v7.55h-.83v-7.38c0-1.52-.64-2.17-2.07-2.17s-2.67.64-4.5 1.92v7.63h-.83V28.12h.85v4.36zm15.56-3.99c.21 0 .31.12.31.33v1.25c0 .23-.1.33-.31.33h-.37c-.23 0-.33-.1-.33-.33v-1.25c0-.21.1-.33.33-.33h.37zm-.61 14.23V32.66h.82v10.05h-.82zm9.18-5.4c.04.63.06 1.19.06 1.77v3.63h-.83V28.12h.85v6.82c0 .64-.02 1.13-.09 1.71h1.65l3.79-3.98h1.02l-3.6 3.84c-.15.15-.4.37-.54.48v.04c.15.12.4.4.54.61l3.94 5.09h-1l-4.15-5.4h-1.65v-.02zm21.48.37c0 3.87-1.19 5.27-4.48 5.27s-4.48-1.4-4.48-5.27 1.19-5.27 4.48-5.27 4.48 1.42 4.48 5.27zm-8.08 0c0 3.44.94 4.54 3.6 4.54s3.63-1.1 3.63-4.54-.96-4.52-3.63-4.52-3.6 1.09-3.6 4.52z" style="fill:#fff;stroke-width:0"/></svg>